<svg xmlns="http://www.w3.org/2000/svg" viewBox="0 0 120 130" enable-background="new 0 0 120 130"><style type="text/css">.st0{fill:#FFFFFF;}</style><path class="st0" d="M25.9 59.8c0 2.3-3 3.5-8.9 3.5 0 3.9.3 9.7 1 17.5s1 13.6 1 17.6l-.2.7c.1.3.2.8.2 1.6 0 .7-.3 1.4-1 1.9-.7.6-1.5.8-2.6.8-2.1 0-3.1-2.3-3.1-6.9 0-6.8-.4-19.8-1.1-38.8-.7-19-1.4-29.1-2.2-30.2 0-3.7 2.5-5.7 7.6-5.9.7 0 1.8-.1 3.1-.1s2.4.2 3.1.7c.8.5 1.1 1.5 1.1 3s-1 2.3-3 2.3l-2.6-.1c-2 0-3 .4-3 1.2 0 3.3.3 8.2.8 14.6s.8 11.2.8 14.3c3.1-.8 5.1-1.2 5.9-1.2s1.6.3 2.2 1c.6.9.9 1.7.9 2.5zm19.2 37.5l2.2-.1c2.9 0 4.4.6 4.4 1.8.3 1.2.1 2-.4 2.6-.5.5-1.3.8-2.3.8h-13.5c-2.1 0-3.1-.8-3.1-2.5 0-1.6 1.1-2.5 3.3-2.5l3.3.1c.3 0 .5-1.8.5-5.4 0-3.6-.3-10.9-1-22s-1-19.4-1-24.9l.2-11c0-2.3-.1-4.3-.3-6-.9.3-1.8.5-2.5.5-1.7 0-2.5-.9-2.5-2.6 0-.9.5-1.6 1.6-2.3 1.1-.6 2.4-1.1 4-1.4 3-.5 5.2-.8 6.7-.8s2.5.3 3.1.9c.6.6.9 1.3.9 2.1s-.2 1.5-.7 2.1c-.5.6-1.1.9-1.8.9l-1.9-.1c-.7 0-1.2.1-1.6.4-.3.3-.5.9-.5 1.8 0 7 .5 17.5 1.4 31.5.9 14 1.4 24.5 1.4 31.5v4.6zm38.8-76.5h2.3c-.5 4.7-1.8 14.8-3.8 30.5-2.1 15.7-3.3 26-3.7 30.8-.4 4.9-.7 8.2-.7 10 0 1.8-.1 3.3-.1 4.6-.1 1.3-.2 2.7-.4 4-.5 2.9-1.5 4.4-3.2 4.4-1 0-1.9-.4-2.5-1.2-1.6-6.8-4.1-20.5-7.4-41-3.3-20.5-5.6-33.7-6.9-39.7.4-1.4 1.5-2.1 3.2-2.1.8 0 1.4.2 1.7.6.3.4.5.7.7.9.1.2.3.5.4.9.1.4.2.7.2.9.1.2.1.6.2 1 .1.5.3 1.7.6 3.9.3 2.1 1.1 7.3 2.4 15.5 2.6 17.9 4.8 31.4 6.7 40.6.5-4.1 1.3-10.5 2.6-19.4 2.5-18.3 3.8-32.7 3.8-43 1.1-1.4 2.4-2.2 3.9-2.2zm22.4 43.1l-2.7-.1c-.8 0-1.5.3-1.9.8v33.2c3.7-.2 5.6-.3 5.7-.3 4 0 6 .9 6 2.8v.4c-.5 1-1.3 1.7-2.5 2.3-1.2.5-2.2.8-3.1.9-.9.1-2 .1-3.5.1h-3.3c-2.7 0-4.4-.5-5-1.6-.3-.5-.4-1.1-.4-1.9v-77.8l9.3-.9c1.1 0 2.2.3 3.3 1 1.1.6 1.7 1.5 1.7 2.5 0 2.1-1.6 3.2-4.9 3.2l-3.1-.1c-.5 0-.9 0-1.2.1l.8 17.8c0 1.4-.1 3.5-.3 6.3-.2 2.8-.3 4.8-.3 6 .4-.1.9-.2 1.6-.4 1.5-.4 2.6-.6 3.4-.6s1.6.3 2.2.9c.6.6 1 1.3 1 2.2s-.3 1.6-.8 2.3c-.5.6-1.2.9-2 .9z"/></svg>