<svg xmlns="http://www.w3.org/2000/svg" viewBox="0 0 140 130" enable-background="new 0 0 140 130"><style type="text/css">.st0{fill:#FFFFFF;}</style><path class="st0" d="M27.4 59c0 2.2-2.8 3.3-8.5 3.3 0 3.7.3 9.2 1 16.6.6 7.4 1 12.9 1 16.6l-.2.6c.1.3.1.8.1 1.5s-.3 1.3-.9 1.8c-.6.5-1.5.8-2.5.8-2 0-2.9-2.2-2.9-6.5 0-6.5-.3-18.7-1-36.7-.7-18-1.4-27.5-2.1-28.6 0-3.5 2.4-5.4 7.2-5.6h2.9c1.3 0 2.2.2 3 .7.7.5 1.1 1.4 1.1 2.8s-.9 2.1-2.8 2.1l-2.5-.1c-1.9 0-2.8.4-2.8 1.1 0 3.2.2 7.8.7 13.9.5 6.1.8 10.6.8 13.5 2.9-.7 4.8-1.1 5.6-1.1s1.5.3 2 1c.6.8.8 1.5.8 2.3zm32.9 10.5l-.9 12.9v.4c-.4 1.9-.6 3.9-.6 6.1s-.4 4.3-1.1 6.4c-.7 2-1.9 3.9-3.4 5.4-1.5 1.6-3.2 2.4-5.1 2.4-1.8 0-3.5-.6-5-1.9-1.5-1.3-2.8-2.9-3.7-4.9-1-2-1.9-4.3-2.6-7.1-.8-2.7-1.3-5.4-1.7-8s-.7-5.4-1-8.2c-.4-4.4-.5-8-.5-10.9 0-2.8 0-5.2.1-7 .1-3.4.3-6.3.4-8.9.2-2.6.3-4.6.3-6 0-1.4.1-2.6.1-3.5 0-1 .1-2.1.3-3.6.2-1.4.4-2.6.6-3.6.2-1 .6-2 1.1-3.1.5-1.1 1.1-2 1.7-2.7 1.5-1.6 3.2-2.3 5.1-2.3s3.4.2 4.5.5c1.1.4 2.1.8 2.9 1.4.8.6 1.5 1.3 2.1 2.3.6.9 1.2 1.9 1.6 2.8s.8 2 1.1 3.2c.4 1.6.9 3.9 1.3 6.8 1.6 11.6 2.4 22 2.4 31.1zm-9-37.3c-.7-1.7-1.5-3.1-2.5-4-1-.9-1.9-1.4-2.8-1.4-.9 0-1.7.2-2.2.7-.6.5-1 1.2-1.4 2.1-.4.9-.8 1.9-1.1 3-.3 1-.6 2.3-.8 3.8-.2 1.5-.4 2.9-.6 4.1-.2 1.2-.3 2.7-.4 4.4s-.2 3.1-.2 4.1c-.1 1.1-.1 2.3-.1 3.8v5.1c0 5.5.5 11.8 1.5 18.8 2.1 13.9 5 20.9 8.7 20.9 1.3 0 2.5-1.3 3.4-3.8.9-2.5 1.6-5.7 1.9-9.5.7-6.5 1-11.2 1-14.1v-6.3c0-1.3-.1-3.1-.1-5.5-.1-2.4-.2-4.7-.4-6.8s-.4-4.4-.7-7c-.3-2.6-.7-4.8-1.2-6.8-.7-2-1.3-3.9-2-5.6zm45.9 38.9l.3 6.3v1.5l-.3 1.1v5.9c0 6-.8 10.2-2.5 12.7-1.6 2.3-4.1 3.5-7.4 3.5-4.1 0-7.2-1.5-9.3-4.4-1.9-2.5-3.2-5.9-4.1-10.2-1.1-5.1-2-8.7-2.6-10.9-.1-.2-.4-7.8-1.1-22.8-.7-15-1-23.4-1-25.1-.5-.6-.7-1.3-.7-2.1s.3-1.6.9-2.2c.6-.6 1.3-.9 2.1-.9 2.5 0 3.7 2.4 3.7 7.3l.9 35.5c.4.9.7 2.7 1 5.4.3 2.7.4 4.8.4 6.4s.2 3.4.7 5.6c.5 2.2 1.1 4.4 2 6.7.8 2.3 2 4.2 3.4 5.8s2.9 2.4 4.5 2.4c2.6 0 4-2.3 4.1-7v-48c0-1.9-.4-4.8-1.1-8.7-.7-3.9-1.1-6.5-1.1-7.9 0-1.4.3-2.3 1-2.8s1.5-.8 2.3-.8l3.1 2.4v1.7l-.9 6.2c0 4 .2 9.7.7 17.4.5 7.6.8 13.3.8 17v.1l.2 2.9zm31.9 26.9c0 2.2-.8 3.3-2.4 3.3-1.3 0-2.5-.9-3.7-2.7v-.3c-.2-2.7-1-6.5-2.5-11.2-1.5-4.7-2.4-8-2.8-9.6-.4-1.7-1-4.8-1.8-9.4s-1.5-8.1-2.1-10.5v40.2c0 2.2-1.1 3.2-3.3 3.2-.8 0-1.5-.3-2-.8-.6-.5-.8-1.2-.8-2v-.8l.7-59.8v-12.7c0-.8.2-1.4.5-1.7.3-.3 1.3-.5 2.9-.5s3.2.5 4.9 1.6c1.7 1 3 2.4 4 4.1 2.1 3.4 3.1 7.2 3.1 11.3 0 3.3-.8 7.1-2.5 11.4-.2.5-.6 1.4-1.2 2.9s-.9 2.4-1 2.6c0 2.7.5 6 1.3 9.9.8 4 1.6 7.2 2.4 9.6.7 2.4 2 6.2 3.7 11.4 1.7 5.2 2.7 8.1 2.9 8.9v1.6zm-15.6-70.6l-.5 20.8c0 2.1 0 3.7.1 4.7 1.1-1.1 2.2-2.4 3.3-3.9l1.5-8.8c0-3.5-.5-6.5-1.4-8.9-1-2.4-2-3.7-3-3.9z"/></svg>