<svg xmlns="http://www.w3.org/2000/svg" viewBox="0 0 120 130" enable-background="new 0 0 120 130"><style type="text/css">.st0{fill:#FFFFFF;}</style><path class="st0" d="M37 74.8l-1 15.1v.5c-.5 2.2-.8 4.6-.8 7.2 0 2.6-.4 5-1.3 7.4s-2.2 4.5-4 6.3c-1.8 1.8-3.8 2.8-5.9 2.8-2.1 0-4.1-.7-5.8-2.2-1.8-1.5-3.2-3.4-4.4-5.7-1.1-2.3-2.2-5.1-3.1-8.3-.9-3.2-1.6-6.3-2-9.4-.5-3-.9-6.3-1.2-9.6-.4-5.2-.6-9.4-.6-12.7 0-3.3.1-6 .2-8.2.2-3.9.3-7.4.5-10.4s.3-5.4.3-7c0-1.6.1-3 .1-4.1 0-1.1.2-2.5.3-4.2.2-1.6.4-3.1.7-4.2.3-1.2.7-2.4 1.3-3.7.6-1.3 1.2-2.3 2-3.1 1.8-1.8 3.8-2.7 6-2.7s4 .2 5.3.6c1.3.4 2.4 1 3.3 1.7.9.7 1.7 1.6 2.5 2.7s1.4 2.2 1.9 3.2.9 2.3 1.3 3.8c.5 1.9 1 4.5 1.5 8 2 13.5 2.9 25.6 2.9 36.2zm-10.4-43.6c-.8-2-1.7-3.6-2.9-4.7-1.1-1.1-2.2-1.7-3.3-1.7-1.1 0-1.9.3-2.6.8-.7.5-1.2 1.4-1.7 2.4-.5 1.1-.9 2.2-1.3 3.5-.4 1.2-.7 2.7-1 4.5-.3 1.8-.5 3.4-.7 4.8-.2 1.4-.3 3.1-.5 5.1-.1 2-.2 3.6-.3 4.8-.1 1.2-.1 2.7-.1 4.5v5.9c0 6.4.6 13.7 1.8 22 2.4 16.2 5.8 24.4 10.2 24.4 1.6 0 2.9-1.5 4-4.4 1.1-3 1.8-6.7 2.3-11.1.8-7.6 1.2-13 1.2-16.4v-7.3c0-1.5-.1-3.6-.2-6.4-.1-2.8-.3-5.4-.5-7.9s-.5-5.2-.9-8.2c-.3-3-.8-5.6-1.4-8-.7-2.4-1.4-4.6-2.1-6.6zm53.6-4.4l-.5 44v36.4c0 1.9-.8 3.3-2.3 4.1-.8.4-1.7.6-2.5.6-.9 0-1.5-.1-2-.4-.4-.3-.8-.6-1-1-.2-.4-.4-.9-.6-1.5-.2-.6-.3-1.1-.4-1.6-.4-2.8-1.9-8.8-4.4-17.8-4.9-17.4-8-30.5-9.4-39.3-.1-.3-.1-.6-.1-1.1 0-.5 0-.9-.1-1.2 0-.9-.3-1.6-.6-2.1 0-1.6-.3-3.7-1-6.3-.7-2.5-1.1-4.1-1.2-4.6v75.4h-4.2v-2.2c.2-.6.1-1.8-.1-3.7-.2-1.9-.3-4.1-.3-6.6 0-2.6-.3-8.5-.8-17.7-.5-9-.7-14.6-.7-16.7v-15.2l.8-21.9c0-2.9.2-4.6.6-4.9 1-.8 2.1-1.2 3.1-1.2 1.1 0 1.9.2 2.5.5 1.4.7 2 1.8 2 3.1s.2 2.6.5 3.9c.3 1.3.8 2.8 1.3 4.4.6 1.6 1 2.8 1.2 3.7.2.9.4 1.8.6 3 .2 1.1.3 2.1.4 3 .3 3 .6 5.6 1 7.7.4 2.2 1.2 5.4 2.4 9.7 1.2 4.3 2.3 8.1 3.3 11.4 2.6 8.5 4.1 16 4.5 22.7.6 1.2 1 2.6 1.2 4.2l.3-41.5v-35.2c.5-2 1.8-3 3.9-3s3.2 1.6 3.2 4.7v.7c-.4 1-.6 2.2-.6 3.5zm25.1 40.3l-3-.1c-.9 0-1.6.3-2.1.9v36.8c4.1-.2 6.2-.3 6.3-.3 4.4 0 6.6 1 6.6 3.1v.4c-.5 1.1-1.5 1.9-2.8 2.5-1.3.6-2.4.9-3.4 1-1 .1-2.2.1-3.8.1h-3.7c-3 0-4.9-.6-5.6-1.7-.3-.5-.5-1.3-.5-2.2v-86l10.3-1c1.2 0 2.4.4 3.6 1.1 1.2.7 1.8 1.7 1.8 2.8 0 2.4-1.8 3.5-5.4 3.5l-3.4-.1c-.6 0-1 0-1.3.1l.9 19.7c0 1.6-.1 3.9-.3 7-.2 3-.3 5.3-.3 6.7.4-.1 1-.2 1.7-.4 1.6-.4 2.9-.6 3.8-.6.9 0 1.7.3 2.4 1s1.1 1.5 1.1 2.4-.3 1.8-.9 2.5c-.3.4-1.1.8-2 .8z"/></svg>