<svg xmlns="http://www.w3.org/2000/svg" viewBox="0 0 165.7 130" enable-background="new 0 0 165.7 130"><style type="text/css">.st0{fill:#FFFFFF;}</style><path class="st0" d="M10.5 103.7c0-1.9.8-2.8 2.3-2.8.8 0 1.8.3 3.1.8s2.4.8 3.3.8c.9 0 1.9-.6 3-1.8 1.1-1.2 1.9-2.7 2.6-4.4 1.3-3.6 1.9-6.8 1.9-9.8 0-2.9-.5-6.1-1.5-9.4-1-3.3-2.3-6.5-3.8-9.4-1.5-2.9-3-5.9-4.4-8.8-3.5-7-5.3-13.4-5.3-19.1 0-5.4 1.7-9.7 5.2-12.8 1.8-1.6 4-2.5 6.5-2.5 1.3 0 2.5.3 3.7 1 1.2.7 2 1.6 2.5 2.7v2.2c-2.9 0-4.9-.3-5.9-1-1.3.1-2.4.7-3.4 1.8-1.7 2-2.6 4.4-2.6 7.1 0 2.7.4 5.4 1.2 8.3.8 2.8 1.7 5.5 2.8 8 1.1 2.5 2.2 4.8 3.3 7 1.1 2.1 2.1 3.9 2.8 5.3l1.2 2.1v1c.2.9.6 2.3 1.2 4.2.6 1.9 1 3.4 1.4 4.5.9 3.1 1.3 5.8 1.3 8.3 0 2.5-.3 4.9-.9 7.1-.6 2.2-1.4 4.4-2.6 6.4-1.1 2-2.6 3.6-4.5 4.9-1.9 1.3-3.7 1.9-5.3 1.9s-3-.1-4.1-.3c-1.1-.2-2.2-.5-3.4-1.1-1-.6-1.6-1.3-1.6-2.2zm42.5-37l-2.6-.1c-.8 0-1.4.3-1.8.8v32.3c3.6-.2 5.4-.3 5.5-.3 3.9 0 5.8.9 5.8 2.8v.4c-.5 1-1.3 1.7-2.4 2.2s-2.1.8-3 .9c-.9.1-2 .1-3.4.1h-3.3c-2.7 0-4.3-.5-4.9-1.5-.3-.5-.4-1.1-.4-1.9v-75.7l9-.9c1.1 0 2.1.3 3.2.9 1.1.6 1.6 1.5 1.6 2.5 0 2.1-1.6 3.1-4.7 3.1l-3-.1c-.5 0-.9 0-1.1.1l.8 17.3c0 1.4-.1 3.4-.3 6.1-.2 2.7-.3 4.6-.3 5.8.4-.1.9-.2 1.5-.4 1.4-.4 2.5-.6 3.3-.6.8 0 1.5.3 2.1.9.6.6.9 1.3.9 2.1s-.3 1.5-.8 2.2c-.2.7-.9 1-1.7 1zm38-41.8h2.2c-.5 4.5-1.7 14.4-3.7 29.7-2 15.2-3.2 25.2-3.6 29.9-.4 4.7-.6 7.9-.6 9.6 0 1.7-.1 3.2-.1 4.5-.1 1.3-.2 2.6-.4 3.9-.4 2.9-1.5 4.3-3.1 4.3-1 0-1.8-.4-2.5-1.1-1.6-6.6-4-19.9-7.1-39.9-3.2-19.9-5.4-32.8-6.7-38.5.4-1.4 1.4-2 3.1-2 .8 0 1.3.2 1.6.5s.5.6.6.8c.1.2.3.5.4.9.1.4.2.7.2.9.1.2.1.6.2 1s.2 1.7.6 3.8c.3 2.1 1.1 7.1 2.3 15.1 2.5 17.4 4.7 30.5 6.5 39.5.4-3.9 1.3-10.2 2.6-18.8 2.4-18 3.7-32 3.7-42 1.1-1.4 2.3-2.1 3.8-2.1zm21.7 41.8l-2.6-.1c-.8 0-1.4.3-1.8.8v32.3c3.6-.2 5.4-.3 5.5-.3 3.9 0 5.8.9 5.8 2.8v.4c-.5 1-1.3 1.7-2.4 2.2s-2.1.8-3 .9c-.9.1-2 .1-3.4.1h-3.3c-2.7 0-4.3-.5-4.9-1.5-.3-.5-.4-1.1-.4-1.9v-75.7l9-.9c1.1 0 2.1.3 3.2.9 1.1.6 1.6 1.5 1.6 2.5 0 2.1-1.6 3.1-4.7 3.1l-3-.1c-.5 0-.9 0-1.1.1l.8 17.3c0 1.4-.1 3.4-.3 6.1-.2 2.7-.3 4.6-.3 5.8.4-.1.9-.2 1.5-.4 1.4-.4 2.5-.6 3.3-.6.8 0 1.5.3 2.1.9.6.6.9 1.3.9 2.1s-.3 1.5-.8 2.2c-.2.7-.9 1-1.7 1zm42.7-35.5l-.4 38.7v32c0 1.7-.7 2.9-2 3.6-.7.4-1.5.6-2.2.6s-1.3-.1-1.7-.4c-.4-.2-.7-.5-.9-.9s-.4-.8-.5-1.3-.3-1-.3-1.4c-.4-2.5-1.7-7.7-3.9-15.6-4.3-15.2-7-26.7-8.2-34.5-.1-.2-.1-.6-.1-1s0-.7-.1-1c0-.7-.2-1.4-.6-1.8 0-1.4-.3-3.3-.9-5.5-.6-2.2-1-3.6-1-4v66.2h-3.7v-1.9c.1-.5.1-1.6-.1-3.2s-.3-3.6-.3-5.8-.2-7.4-.7-15.5c-.4-8.1-.7-13.1-.7-14.9v-13.4l.7-19.2c0-2.6.2-4 .6-4.3.9-.7 1.8-1 2.8-1 1 0 1.7.1 2.2.4 1.2.6 1.8 1.5 1.8 2.7 0 1.2.1 2.3.4 3.4.3 1.1.7 2.4 1.2 3.8s.9 2.5 1.1 3.2c.2.7.4 1.6.5 2.6.2 1 .3 1.9.3 2.7.2 2.6.5 4.9.9 6.8.4 1.9 1 4.7 2.1 8.5s2 7.1 2.9 10c2.3 7.4 3.6 14.1 3.9 20 .5 1 .9 2.3 1 3.7l.3-36.5v-30.9c.4-1.7 1.6-2.6 3.4-2.6 1.9 0 2.8 1.4 2.8 4.1v.6c-.3.9-.6 1.9-.6 3z"/></svg>