<svg xmlns="http://www.w3.org/2000/svg" viewBox="0 0 110 130" enable-background="new 0 0 110 130"><style type="text/css">.st0{fill:#FFFFFF;}</style><path class="st0" d="M10.6 105.6c0-2.2.9-3.2 2.7-3.2.9 0 2.1.3 3.6.9 1.5.6 2.7.9 3.8.9 1.1 0 2.2-.7 3.5-2.1 1.3-1.4 2.2-3.1 2.9-5.1 1.5-4.1 2.2-7.9 2.2-11.2 0-3.4-.6-7-1.8-10.8-1.2-3.8-2.6-7.5-4.3-10.8l-5.1-10.1c-4-8.1-6.1-15.4-6.1-22 0-6.3 2-11.2 5.9-14.8 2.1-1.9 4.6-2.8 7.5-2.8 1.5 0 2.9.4 4.2 1.2 1.4.8 2.3 1.9 2.9 3.1v2.6c-3.4 0-5.6-.4-6.8-1.2-1.5.2-2.8.9-3.9 2.1-2 2.4-3 5.1-3 8.2 0 3.1.5 6.3 1.4 9.5.9 3.3 2 6.4 3.2 9.2 1.3 2.9 2.5 5.6 3.8 8 1.3 2.5 2.4 4.5 3.3 6.1.9 1.6 1.4 2.4 1.4 2.5v.9c.3 1 .7 2.6 1.4 4.8.7 2.2 1.2 3.9 1.6 5.2 1 3.5 1.5 6.7 1.5 9.6 0 2.9-.3 5.6-1 8.2-.7 2.6-1.7 5-2.9 7.3-1.3 2.3-3 4.2-5.2 5.6-2.2 1.5-4.2 2.2-6.1 2.2-1.9 0-3.5-.1-4.8-.3-1.3-.2-2.6-.6-3.9-1.3-1.3-.6-1.9-1.4-1.9-2.4zm48.3-5.4l2.5-.1c3.3 0 4.9.7 4.9 2 .3 1.3.2 2.3-.4 2.9-.6.6-1.5.9-2.6.9h-15.2c-2.3 0-3.5-.9-3.5-2.8 0-1.8 1.2-2.8 3.6-2.8l3.7.1c.4 0 .6-2 .6-6s-.4-12.2-1.1-24.6c-.7-12.4-1.1-21.7-1.1-27.9l.2-12.3c0-2.6-.1-4.8-.3-6.7-1.1.4-2 .5-2.8.5-1.9 0-2.8-1-2.8-2.9 0-1 .6-1.8 1.8-2.6 1.2-.7 2.7-1.2 4.5-1.6 3.4-.6 5.9-.9 7.5-.9 1.6 0 2.8.3 3.5 1 .7.6 1.1 1.4 1.1 2.3 0 .9-.3 1.6-.8 2.3-.5.6-1.2 1-2 1l-2.1-.1c-.8 0-1.4.2-1.7.5-.4.3-.6 1-.6 2 0 7.8.5 19.6 1.5 35.3 1 15.7 1.5 27.4 1.5 35.3v5.2zm36.4 5.4c-2.4 0-3.5-.9-3.5-2.8 0-1.8-.1-3.7-.3-5.5-.2-1.8-.5-3.8-.9-5.9-.4-2.1-.7-3.8-1-5.1-.3-1.3-.7-3.2-1.3-5.7-.6-2.5-1-4.2-1.2-5.3-3 12.7-4.8 20.7-5.4 24-.6 3.3-1 5.2-1.2 5.8-.2.6-.6 1.2-1.2 1.8-.6.6-1.4.9-2.3.9-.9 0-1.7-.3-2.4-.8s-1-1.2-1-2 .1-1.8.4-2.9c.3-1.1.7-2.3 1.2-3.6.5-1.4 1.2-3.3 2-6 .8-2.6 2.1-8 3.8-16.2 1.7-8.2 2.6-13.9 2.6-17.1 0-3.2-.4-6.6-1.2-10.3-.8-3.6-1.7-6.9-2.7-9.7-2.6-7.7-3.9-14-3.9-18.9v-.3c.7-1.6 1.9-2.5 3.4-2.5s2.5.4 2.8 1.1c.3.7.5 1.3.6 1.6.1.4.2 1 .3 1.8.1.8.2 2 .4 3.4s.9 4.4 2 8.9c1.2 4.6 1.9 7.5 2.1 8.7.1-.4.6-3.2 1.5-8.4 2.2-12.6 4.5-18.9 6.9-18.9.9 0 1.7.2 2.5.7.7.5 1.1 1.1 1.1 1.7 0 .7-.1 1.3-.3 1.9-.2.5-.4 1.2-.7 1.9-.3.7-.7 1.7-1.2 3s-1.7 7-3.8 17c-2 10-3 15.7-3 17 0 1.4.5 4.4 1.4 9 .9 4.6 2 9.8 3.1 15.5 1.2 5.7 1.8 8.7 1.8 9v.7c.1 1 .4 2.5.9 4.5s.8 3.5.8 4.5-.3 1.8-1 2.5c-.5.7-1.2 1-2.1 1z"/></svg>