<svg xmlns="http://www.w3.org/2000/svg" viewBox="0 0 1193 577.8" enable-background="new 0 0 1193 577.8"><style type="text/css">.st0{fill:#5AC6D1;} .st1{fill:#CB1B6C;} .st2{fill:#F6AFC6;} .st3{fill:#F07CB0;} .st4{fill:#EC1E82;} .st5{fill:#802956;} .st6{fill:#EE569E;} .st7{fill:#EF67A5;} .st8{fill:#801644;} .st9{fill:#027F80;} .st10{fill:#067F80;} .st11{fill:#064040;} .st12{fill:#1DBCBE;} .st13{fill:#7BD1DA;} .st14{fill:#BDE8ED;}</style><path class="st0" d="M253.5 537l18.8 12.5 14.5 21.5-13.2 6.8-35.6-2-29.4 1.4-17.1-5.7-7.8-9.1-2.4-29.5z"/><g id="_x31_3"><path class="st1" d="M797.4 309.7l-108.1 262.8 27.3-265.5z"/><path class="st2" d="M1193 5.2l-39.9 199.2-10.7 32-20.4 20.2 24.1-66.9 29.9-146zm-669.2 167.4l-5.8 103.9.3 18.9 7.7 13.4-2.2-37.7 7.5-90.8-5.7-3.5z"/><path class="st3" d="M200.1 0l-13.4 54.9-6.8 6.7-36.8 36.2-7-6.5-32-29.9 62.6-61.4z"/><path class="st2" d="M88.8 62l.1.2h-.1l15.2-.9 62.6-61.3h-73.5l-38.4 37.8 10.9-4z"/><path class="st4" d="M179.9 61.6l6.8-6.7-4.3 17.6-6.8 6.6-33.7 33.1-27.8 22.4-28.2 5.5 57.2-42.3z"/><path class="st5" d="M85.9 140.1l-70.6 12.9 97.6-13.2 29-27.6-27.8 22.4z"/><path class="st1" d="M143.1 97.8l-7-6.5-49.5 35.9-68.7 14-6.3-3.8-11.6 11.3 15.3 4.3 70.6-12.9z"/><path class="st6" d="M17.9 141.2l68.7-14 49.5-35.9-32-29.9-15.2.9-77.3 75.1z"/><path class="st4" d="M65.7 33.8h-.1l-65.6 114.8 88.8-86.4z"/><path class="st3" d="M54.7 37.8l-53.4 108.6 64.4-112.6zm10.9-4h.1-.1z"/><path class="st4" d="M312.3 0l-4.4 140.4-27.1-140.4z"/><path class="st6" d="M300.4 155l7.5-12.7v-1.9l-27.1-140.4h-23.9l-15.9 65.2 20.3 104.9 2.7-11.5z"/><path class="st3" d="M306.5 186.1l-6.5-31.1 7.9-12.7z"/><path class="st1" d="M306.5 186.4l-1.5 51.9v.6l-41-80.3h.1l5.6-.6 30.3-3h.1-.1z"/><path class="st5" d="M304.9 238.6l-40.9-80-2.7 11.5 43.4 74.5z"/><path class="st6" d="M513.5 147.9l-30.2 277.3-5.2-.3-24.4-1.5 8.6-79.1 6.6-8.3 2.7-58.7.8-25.9 17.5-161.6 20.3 50.2z"/><path class="st4" d="M489.9 89.8l-17.4 160.8 5.5-187.8 11.8 26.7zm-42.4 339.2l6.2-5.6 8.6-79.1-33.4 42-4.7 44 3.2-5.3h.1z"/><path class="st2" d="M483.3 425.2l-9.3 36.6 10.1-11.7 3.9-18.5 29.7-273.6-4.2-10.1z"/><path class="st5" d="M474 461.8l-25.5 29.1 37-38.3 2.5-21-3.9 18.5z"/><path class="st7" d="M483.3 425.2l-5.2-.3-8.4 31.4-24.3 28.9-4 .5-1 8.6 8.1-3.4 25.5-29.1z"/><path class="st3" d="M447.5 428.9l-6.1 56.8 4-.5 24.3-28.9 8.4-31.4-24.4-1.5z"/><path class="st1" d="M447.5 428.9l-20-3.9 12.9 69.3 1-8.6zm0 0l-20-3.9 20 3.9zm-6.1 56.8l6.1-56.8z"/><path class="st5" d="M427.5 425l-3.3 5.3 16 62.8-12.7-68.1z"/><path class="st4" d="M458.2 260.8l-14 .2h-1.6l-62.8.8 8.2-261.8h40.4l36 42.3z"/><path class="st6" d="M312.3 0l-8.9 287 7.5-15.1 53.5 6.1 15.4-16.3 8.2-261.7h-75.7z"/><path class="st3" d="M472.5 250.6l-.1.8-.8 25.9-6.7 52-1.1 1.5-.1.2-23.1 32.8 17.6-103 6.6-229.7 13.2 31.7z"/><path class="st5" d="M471.6 277.3l-2.7 58.7-6.6 8.3-.1.1-33.3 41.9-50.2 63.2 51.1-70.7 10.8-15 23.1-32.8.1-.2 1.1-1.5z"/><path class="st1" d="M444.2 261l-16 88.8-58.7 84.8-10.3 2.2 5.2-158.6-53.5-6.1 6.4 25.4 16.9 67.7 23.8 95.5 20.8-10.8 51-70.7 10.7-15.2 17.6-103h-13.9z"/><path class="st6" d="M444.2 261l-4.1 22.8-11.9 66-58.6 84.7-10.4 2.2 5.2-158.6 15.4-16.3 62.8-.8z"/><path class="st5" d="M357.3 457.2l-.2-.5-53.7-169.7v-.2l4-8 .3-.6.1-.2.4-.8.3-.5 1.8-3.7.5-.8.1-.3.1.1 6.3 25.3 16.9 67.6 1.5 5.9z"/><path class="st8" d="M464.8 31.1l-13-31.1h-23.9l36.5 42.3z"/><path class="st6" d="M544 188l-12.7-7.7-7.5 90.8 5.2.7 24.2 3.1 3.6-43.2z"/><path class="st5" d="M518.3 295.4l-.3-18.9-1.5 21.1 29 44.7-19.5-33.5z"/><path class="st7" d="M531.2 304.3l-2.2-32.5-5.2-.7 2.2 37.7 19.5 33.5 7.3 4.8.7-8.6-3.9-1.3z"/><path class="st3" d="M553.2 274.9l-24.2-3.1 2.2 32.5 18.4 32.9 3.9 1.3 4.7-56.5z"/><path class="st1" d="M560 329l4.9-47.5-6.7.5-4.7 56.7-.7 8.5.7-1.8-.2.5z"/><path class="st4" d="M573.7 206.2l-7 59.3-1.8 16-6.7.5-5-7.1 3.6-43.2-12.8-43.7z"/><path class="st6" d="M496.8 27.4v.2l-.1-.2v-.1zm-16.8 7.7v.1-.2zm57.6 5.2l-5.6-13.9-4.1-10.4-6.4-16h-57.2l50.6 126.1 50.3-17.6-27.6-68.2zm-40.8-12.7v-.4l.1.2-.1.2z"/><path class="st4" d="M520.6 0l44.5 108.5 13.6 7.5 6.1-3.6 13.2-112.4z"/><path class="st2" d="M550.2 187.9l-23.5-15.3h-.1l-16.4-31.6-58.4-141h12.4l50.6 126.1z"/><path class="st5" d="M574 204l-.3 2.2-48.1-29.4-15.4-35.8 16.4 30.6h.1z"/><path class="st7" d="M575.6 190.5l-1.6 13.5-23.8-16.1-12.8-22.4-4.2-7.3-4.7-8.1-13.7-24 9.9-3.5 30.1 53.3z"/><path class="st3" d="M563.4 152.6v.2-.2-.2zm15.3-36.6l-13.6-7.5-40.4 14.2 30.1 53.3 20.8 14.6 7.6-64.3-4.5-10.3zm-15.3 36.8l-.1-.2v-.2l.1.2v.2z"/><path class="st7" d="M700.2 281.9l-94.1-16.6 3.6 130.9 68.6 136.9 14.7 5.3-3.7 34.1-27.5-19.9-71.2-138.2-3.6-152.4 31.8-262h114.8z"/><path class="st6" d="M592.9 217.8v.1-.1z"/><path class="st4" d="M811.8 182.5l-.1-.1-6.9 9.4 40.5-191.8h-111.7l-33.4 281.9 16.4 25.1 80.8 2.7v.1l7.6 23.8 8.8-73.5-8.9-68.3z"/><path class="st2" d="M618.8 0h-20.8l-12.3 104.4-.9 8-.6 5.4-1 8.7-7.6 64.5-1.9 15.3.1.3-9 75.5-1.6 77.5 27.4 54.8-3.6-152.4 31.8-262zm-40.1 282v-.1.1z"/><path class="st5" d="M555.9 368.4l3.7-35.9-6.1 12.9 6.5-16.4 4.9-46.8-1.7 77.4 27.4 54.8.1.2 12.3 23.8 58.3 112.9z"/><path class="st3" d="M716.6 307l-16.4-25.1-94.2-16.7 3.6 130.9 68.6 136.9 14.7 5.3 23.7-231.3z"/><path class="st5" d="M690.6 569.3l114.4-235.7-7.6-23.8z"/><path class="st6" d="M859.1 184.1l8.4 1.4-4.1-21.7z"/><path class="st1" d="M840.3 43.8l-.1-.7 1.2-3.8 12.9-39.3h-8.9l-40.5 191.8 6.9-9.3h.1l10.8 3.3 24.2 7.5 12.2-9.2 4.3-20.6-23.1-119.7zm-17.6 142h-.1l-10.5-3.3 10.5 3.3h.1z"/><path class="st7" d="M879.9 249.7l-48.4 48.7-7.3.2-3.4 15.8 15.1-4.8 50-48.3z"/><path class="st3" d="M859.1 184.1l-12.2 9.2-22.7 105.3 7.3-.2 48.4-48.7-12.4-64.2z"/><path class="st8" d="M846.9 193.2l-22.7 105.3-3.4 15.9-4.9-71.8-4.1-60.1 10.8 3.2 24.2 7.3z"/><path class="st5" d="M820.6 312.2l-6.8-52.1-8.9-68.5 6.9-9.6 4.1 60.4z"/><path class="st6" d="M979.2 211.4l-9.2 2.2-42.6 10.2-36.2-187 9.4-9 28 20.2 36.6 90.5zm-62.2-42.8l.2-.8-.2.8z"/><path class="st4" d="M891.2 36.8l-3.9 9.5-25.1-24-22 21.5 23 119.7.1.3 4.2 21.7 12.3 64.2 3.2-9.1 36.5-3.6 7.7-13.2-36-187z"/><path class="st2" d="M1028.3 0l-69.6 445-.6 37.8-6.6-14 1-18.9 23.9-152.3 5.5-35.1-2.7-51.1-14-72.9 15.9 38.3 1.2.8 7.1 36.7 33.6-214.3z"/><path class="st5" d="M954.7 348.4l20.3-42 1.4-8.8z"/><path class="st7" d="M981.9 262.5l-5.5 35.1-21.7 50.8-12.1 10.4-3-16 6.7-3 26.3-65-2.6-61.2 9.2-2.2z"/><path class="st8" d="M972.6 274.8l-26.3 65-6.7 3-19.9-105.8 7.7-13.2 42.6-10.2z"/><path class="st1" d="M942.6 358.8l-49.9-99.2-1.7-3.4-1.3-2.5-6.6-13.1 36.6-3.6z"/><path class="st5" d="M941.6 356.7l-54-92.6-51.7 45.5 50-48.4-6-11.5 3.2-9.1 6.6 13.1 1.3 2.5 1.7 3.4zm-70.8-356.7l-7.6 19.9-.9 2.4-22 21.5-.1-.6 1.2-3.8 12.9-39.4z"/><path class="st1" d="M900.6 27.8l-9.4 9-3.9 9.5-25-24 .9-2.4 7.6-19.9h27.1z"/><path class="st8" d="M928.6 48l-19.3-48h-11.4l2.7 27.8z"/><path class="st6" d="M977 0h-57.3l50.3 126.3 35.2-12.7 4.9-31.2-33.1-82.4z"/><path class="st4" d="M1023 0h-46l33 82.6z"/><path class="st2" d="M996.2 171.2l-1.5 9.1-12.5-8.7-1.6-3.1v.2l-15.4-30.2-21.5-52.4-15.1-38.1-19.3-48h10.4l2.3 5.7 19 47.3 3 7.5 2.9 7.2.6 1.5 22.8 56.9z"/><path class="st5" d="M994.7 180.3l-.6 4.4-11.7-7.1-1.3-.8-15.9-38.3 15.4 30.2 1.6 2.9z"/><path class="st7" d="M998.6 155.9l-2.4 15.3-25.9-45.1 9-3.2z"/><path class="st3" d="M1005.2 113.6l-6.6 42.3-19.3-33z"/><path class="st6" d="M1028 0l-69.7 444.9 29.1 6 53.2-338.6v-.2l10.3-65.8 7.2-46.3h-30.1zm-65.7 445.7l-2.2-.4-1.1-.3zm1.8.3l-1.7-.3 1.7.3z"/><path class="st1" d="M1047.6 148.7l-8.4 39.9 8.5 64.5-33.3 211.9-1.9-5.7-21.4-1.3-4.7-7 71.7-451h21l-16.1 75.9-15.4 72.9zm-33.2 316.3v.1-.1z"/><path class="st5" d="M975.2 517.5l-25.7-46.6 3-21-1 18.9 6.6 14z"/><path class="st7" d="M983.4 514.4l-1.3 8.5-6.9-5.4-16.9-34.7.4-37.8 5.3 1.1-.2 32.5 15.9 34.2 3.7 1.5z"/><path class="st3" d="M992.1 458l-8.7 56.4-3.8-1.6-15.8-34.2.2-32.5 23.4 4.9z"/><path class="st1" d="M1013.5 459.3l-21.4-1.3-10 64.9 1.1-2.3-.6 1z"/><path class="st5" d="M1013.5 459.3l-30.3 61.1 31.2-55.4z"/><path class="st1" d="M1150.5 0h-18.9l-38.1 181 43.2 7.2 9.4 1.5 29.9-146z"/><path class="st4" d="M1079.1 0l-16 75.9v.2l-15.3 72.4-8.5 40.2 6.8-9.4 35.2 11 12.2-9.2 38.2-181h-52.6z"/><path class="st5" d="M1122 256.6l-51.6 49.9 73.9-65.2 8.8-38.9-10.7 34z"/><path class="st7" d="M1146.1 189.7l-9.4-1.5-21.3 57.3-49.4 49.8-7.4.2-3.4 15.8 15.2-4.8 51.6-49.9z"/><path class="st3" d="M1081.2 190.2l-22.6 105.3 7.4-.2 49.4-49.8 21.3-57.3-43.2-7.2zm-2.9 14.2"/><path class="st1" d="M1046 179.2l1.7 22.9 7.5 109.1 26-121-35.2-11zm35 10.8"/><path class="st5" d="M1055 309.1l-15.8-120.5 6.8-9.4z"/><path class="st8" d="M1150.5 0l25.5 43.7 17-38.5-4-5.2z"/><path class="st6" d="M1193 5.2l-1-5.2h-3z"/><path class="st7" d="M618.8 0"/><path class="st5" d="M578.7 116l6.1-3.6-1.7 13.9z"/></g><path class="st0" d="M186.1 290.1l11.1-3.8 18.2 20.3-4.1 36.1 5.3 28.8 9.8 55.1 16.2 37.2 11 38.9-.1 48.6-65.6-9.7-21.7-28.5-5.1-69.3-3.3-37.4zm4.5-1.5l6.6-2.3 18.2 20.3 5.9-18-7.2-33.9-21.2 14.3zm7.2-39.9l15.4-13 2.7 14-1.8 5-21.2 14.3zm4.5-25.4l-4.5 25.4 12.6-10.2 4.1-4-.1-17.4z"/><path class="st9" d="M218.8 276.7l2.5 11.9-5.9 18-4 34.5 15 85.5 16.2 37.2 11 38.9-.1 48.6-25.2-44.9 1.9-35.8-20.9-38.6-5-81.1-9.6 3.9 7.5-14.1-7.5-12 12.7 5.6 4.3-27.7 5.3-16.4-.2-12.6zm-46.3 69.4l-14.7 60.3 8.4 106.7 21.7 28.5-17-31.2-5.7-112.7zm3.3-14.5l10.2-41.4 4.5-1.6 2.4-19.6 4.8-20.3 4.6-25.4 12.1-6.2-8.7 7.5-3.5 12.7 5.2 5.7h-5.6l3.9 3.6-4.9 2.6-3 10.3 7.9-5.2-7.9 14.6-2.7 14.2 14.2 9.8-3.6 3-11-4.2-6.8 4.5z"/><path class="st10" d="M214.1 254.4l1.8-4.8-.9-4.3v4.2l-5.3-4.2zm.4-19.9l-2.5-1.6 1.2 2.8z"/><path class="st11" d="M214.5 217.1l-12.2 6.2-4.5 25.4-4.9 20.3-2.3 19.6-4.6 1.6-28.2 116.2 1.7 22.4 2-23.6 6.4-49.6 10.7-44.2 9.6-18.1 4.1-2.6 9.1.3-8-7.9.7-14.1 3.7-5.1-1.9-1 3.3-14.2 3-2.4-2-2.7.5-1.6h3l-2.4-3.9 1.7-13.7zm5 63.2l1.8 8.3-3 9.3 1.5-8.8zm-7.6 57l-.5 3.8 15 85.5 16.2 37.2 11 38.9-.1 48.6-2.3-48.6-11.1-37.2-18.2-35.2-11.8-80.5-8.6-2.1 5.9-5.7-5.9-5.7z"/><path class="st3" d="M130.4 426.5l-12.5 52.5-3.4-1.7-12.5-33.5v-.1l2.5-30.6 22.2 6.5z"/><path class="st5" d="M91 433.5l2.5-17.7-4.5 19.6 20.7 46-13.5-34.2z"/><path class="st7" d="M118 479l-2 7.9-6.3-5.5-13.5-34.2 3.6-35.5 4.7 1.4-2.5 30.6v.1l12.5 33.5z"/><path class="st1" d="M130.5 426.5h-.1l-14.4 60.4 33.6-57.3-19.1-3.1z"/><path class="st5" d="M116 486.9l34.8-51.5-1.2-5.8z"/><path class="st6" d="M126.7 419.6l-22.2-6.5-4.8-1.4 26.3-107.7 4.7-3 1.3-7.4-3.1-1.6 2.3-9.3 6.7-5.3-3.9-6.4 5.5-22.5 3.4-5.8-1.5-1.8 41-168.4 4.3-17.6 13.4-54.9h28.9zm4-118.6l-4.7 3 .3-1.2 2.4-9.9.2-.9 3.1 1.6zm7.2-23.6l-6.7 5.3.5-2.1 1.8-7.5.5-2.1zm5-34.7l-3.4 5.8 1.9-7.6z"/><path class="st4" d="M229 0l-4.3 17.5-4.3 17.7-93.8 384.4 3.8 7 19.1 3 1.2 5.8 106.2-435.4h-27.9zm-99 426"/><path class="st2" d="M200.1 0l-13.4 54.9-4.3 17.6-41 168.4-1.9 7.6-5.5 22.5-.5 2.1-1.8 7.5-.5 2.1-2.3 9.3-.2.9-2.4 9.9-.3 1.2-26.3 107.9-3.5 35.3-5.2-13.6 2.5-17.6 27.3-111.7 3.5-14.7.1-.1 1.7-7.1 4.2-17.3.1-.2 2.7-11.2 4.2-17.4 1.8-7.1v-.1l.7-3 4.2-17.2.1-.3 31.5-129.5 4.3-17.5 15-61.6z"/><path class="st0" d="M144 208h-8.5l-6.6 10.2 9.3 12.1 6.8-9.2zm-1.1 34.7l-3.4 5.8-3.6 6.1-1.5-.5-1.3-.4-9.3-3-2.4-4.9-.7-1.4-1.9-4 6.5-8.3 8.5.3 3.5 3.9 4.1 4.6zm-5 34.7l-6.7 5.3-2.6 1.9-2.5-2.2-.1-.1-15.6-13.8h-.1l-.1-.2 3.4-11.6 11.4-1.1 7.2 1.5-1.9 7.7.1.1 3.6 6.1zm-5.9 16.2l-1.3 7.4-4.7 3-2.9 1.8-1.7-1.1-.6-.4h-.1l-3.3 13.7-10.3-11.8-1.3-10.9 6.5-12.2 11.8 6.3.3.1 4.5 2.5z"/><path class="st12" d="M132.2 257.1l-7.2-1.5 5.3 9.2zm-11.5 47.2l-12.1-7.4-1.5 9.3 10.3 11.8z"/><path class="st10" d="M142.9 242.7l-3.4 5.8-3.6 6.1-1.5-.5 6.4-11.3-3.5-6.5 4.1 4.6zm1.1-34.9l1 13.2-6.8 9.3-1.2-1.7 1 .1 5.8-8.1zm-6.1 69.6l-6.7 5.3-2.6 1.9-2.5-2.2-.1-.1.1.1 2.8.7 2.8-2.5 3.6-3.2-1.8-4.3-3.2-8-.4-.9.4.6.1.1 3.6 6.1zm-5.9 16.2l-1.3 7.4-4.7 3-2.9 1.8-1.7-1.1 2.7-.5 2.2-1.4 3.5-2.2.7-6.2-1.8-1.5-4.4-3.3-.2-.2.3.1 4.5 2.5zm-21.8 4.3l10.5 6.4-3.3 13.7z"/><path class="st11" d="M110.2 297.9l10.5 6.4-3.3 13.7 1.4-13.1z"/><path class="st13" d="M124.1 289.4l-10.5-1.1-7.8 7 6.5-12.2 11.8 6.3zm-13.9-20.4l3.4-12.3 11.4-1.1 4.9 8.6-9.2-4.3-5.8-.6zm23.6-36.6l-7.1 2.3-4 6.3-1.3 4.8-2.6-5.4 6.5-8.3 8.5.3zm10.3-24.3l-7.1 1.9-8.1 8.3 6.6-10.3h8.5z"/><path class="st14" d="M105.8 295.3l6.5-12.2 11.8 6.3-11.1-3.1zm7.8-38.6l11.4-1.1 4.9 8.6-5.8-5.9zm20.2-24.3l-8.5-.3-6.5 8.3 1.9 4 .7-4.1 4.9-6.7zm10.2-24.4h-8.5l-2.6 4 4.1-2.9z"/><path class="st9" d="M253.5 545.8l14.3 6.4 5.8 25.6 13.2-6.8-14.5-21.5-18.8-12.5z"/><path class="st11" d="M253.5 537l18.8 12.5 14.5 21.5-7.2 3.7-8.2-23.4z"/><path class="st9" d="M181.3 532.9l2.4 29.5 7.8 9.1 3.2 1-8.6-11.5z"/></svg>