<svg xmlns="http://www.w3.org/2000/svg" viewBox="0 0 150 256" enable-background="new 0 0 150 256"><style type="text/css">.st0{fill:#F07CB0;} .st1{fill:#EF67A5;} .st2{fill:#EC1E82;} .st3{fill:#CB1B6C;} .st4{fill:#EF92BC;} .st5{fill:#802956;} .st6{fill:#F6AFC6;}</style><path class="st0" d="M76.3 63.2l.4-56.3-16.5 73.9z"/><path class="st1" d="M76.7 6.9l-56.2 116.9 39.7-43zm-.4 56.3l15.1 17.6-14.7-73.9-.4 56.3z"/><path class="st2" d="M109.3 170.8l19.9-45.9-37.8-44.1z"/><path class="st3" d="M129.2 124.9l-52.5-118 14.7 73.9z"/><path class="st4" d="M60.2 80.8l-39.7 43 19.9 45.7z"/><path class="st0" d="M28.3 223.5l47 26-34.9-80z"/><path class="st3" d="M75.3 249.5l44.5-26-10.5-52.7z"/><path class="st5" d="M109.3 170.8l10.5 52.7 9.4-98.6z"/><path class="st0" d="M91.4 80.8l-15.1-17.6-1 186.3 34-78.7z"/><path class="st6" d="M20.5 123.8l7.8 99.7 12.1-54zm39.7-43l-19.8 88.7 34.9 80 1-186.3z"/></svg>