<svg xmlns="http://www.w3.org/2000/svg" viewBox="0 0 608 108" enable-background="new 0 0 608 108"><style type="text/css">.st0{fill:#FFFFFF;}</style><path class="st0" d="M23.5 33.5l-.2 11c0 5.2.4 9.6 1.3 13.1-.4 1.8-.6 4-.6 6.5l.7 15.3c0 2.8-.8 4.2-2.5 4.2-.9 0-1.6-.4-2.1-1.3-.4-.9-.7-1.9-.7-3l.7-13.6c0-2.9-.2-7.4-.6-13.3-.4-5.9-.6-10.4-.6-13.3l.1-7.5c0-4.1-.3-6.7-.8-8l-4.6.5c-.7 0-1.4-.2-1.9-.6-.6-.4-.9-1-.9-1.7s.7-1.3 2-1.8c1.4-.5 3-.8 5-1.1 3.4-.4 6.3-.6 8.6-.6.7 0 1.3.2 1.9.7.6.5.9 1 .9 1.7s-.3 1.2-.8 1.6c-.5.4-1.1.6-1.8.6l-3-.2h-.9c.6 3.6.8 7.1.8 10.8zm17.3-1.8l-.3 21.3c1 .3 2.5.4 4.5.4h3.3v-1.8c0-2.6-.2-6.5-.6-11.8-.4-5.2-.6-9.2-.6-11.8 0-.6.2-1.2.7-1.6.5-.4.9-.6 1.3-.6s.7 0 1-.1c.3 0 .5-.1.7 0 .2 0 .4.1.6.2.4.2.6.8.6 1.9 0 6 .3 14.9.8 26.8s.8 20.9.8 26.8c0 .5-.2.9-.6 1.2-.4.3-1 .4-1.6.4s-1.3-.2-1.9-.5c-.6-.3-.9-.8-.9-1.4-.4-5.6-.6-12.6-.6-20.9v-3.7c-.4.1-1.1.2-1.9.2l-5.3-.8-.2 9.4v.4l.7 14c0 .8-.2 1.6-.6 2.2-.4.6-1 .9-1.8.9-1.1 0-1.9-1-2.4-3.1-.4-2.1-.6-4.9-.6-8.5l.2-13v-4.9l.2-5-.6-19.3c0-.7.2-1.3.7-1.8.5-.5 1-.8 1.7-.8 1.8.2 2.7 1.9 2.7 5.3zm29.1 48.1l3.4-.2c2.2 0 3.3.7 3.3 2.1 0 .9-.4 1.5-1.1 1.9-.8.4-1.6.6-2.5.6h-8c-.7 0-1.3-.3-1.9-.8s-.8-1.1-.8-1.9c0-.8 0-1.8.2-2.9.2-1.2.2-2.1.2-2.8l-.4-10.9.6-24.9-.5-7.2c0-4 1.2-6 3.6-6 .7 0 1.3.2 1.9.6.2 0 .8.1 1.6.1.8.1 1.6.2 2.2.3.6.1 1.3.3 2.1.5 1.6.4 2.4 1.2 2.4 2.3 0 1.2-.8 2.1-2.5 2.7-2.6-.9-4.8-1.4-6.5-1.6.1 1.2.1 2.4.1 3.7l-.4 12.3c0 .1.1.5.2 1.3l3-.1c2.8 0 4.1.8 4.1 2.3 0 .8-.2 1.6-.7 2.2-.5.6-1.2 1-2.1 1s-1.7-.3-2.3-.8h-2.2c.2 2.2.2 4.2.2 6.2l-.3 15.2c0 3.2 1 4.8 3.1 4.8zm17.9-22c-.4 1.6-.6 3-.6 4.4 0 1.3.2 4.2.5 8.6.3 4.4.5 7.2.5 8.5 0 1.3-.2 2.3-.7 2.9-.5.7-1 1-1.6 1-.8 0-1.4-.6-1.6-1.7.1-2.1.1-4.7.1-7.8 0-3.1-.2-9.8-.7-20.2-.5-10.4-.7-18.2-.7-23.3 0-2.7.9-4 2.8-4 3 0 5.5.8 7.5 2.3 2 1.6 3 3.8 3 6.7 0 3.9-.3 6.9-.9 9.1-.6 2.2-1.8 4.9-3.5 8.1.3 1.4.8 4.1 1.6 8.2 1.6 8.8 3.5 15.2 5.5 19.1.6 1.1.9 2 .9 2.6s-.2 1.2-.5 1.6c-.3.4-.8.6-1.4.6-1.9 0-3.6-3.1-5.1-9.3-.7-2.7-1.3-5.4-1.8-8.2-1.5-7.5-2.5-11.8-2.9-12.7.1.7-.1 1.9-.4 3.5zm-.2-28.5l-.3 1.2c0 2.3.1 5.7.2 10.1.1 4.4.2 7.6.2 9.6 1.3-.7 2.4-2.5 3.2-5.4.8-2.9 1.2-5.2 1.2-6.7s0-2.7-.1-3.4c-.1-.7-.3-1.5-.5-2.4-.6-2-1.8-2.9-3.9-3zm27 50.5l3.4-.2c2.2 0 3.3.7 3.3 2.1 0 .9-.4 1.5-1.1 1.9-.8.4-1.6.6-2.5.6h-8c-.7 0-1.3-.3-1.9-.8s-.8-1.1-.8-1.9c0-.8 0-1.8.2-2.9.2-1.2.2-2.1.2-2.8l-.4-10.9.6-24.9-.5-7.2c0-4 1.2-6 3.6-6 .7 0 1.3.2 1.9.6.2 0 .8.1 1.6.1.8.1 1.6.2 2.2.3.6.1 1.3.3 2.1.5 1.6.4 2.4 1.2 2.4 2.3 0 1.2-.8 2.1-2.5 2.7-2.6-.9-4.8-1.4-6.5-1.6.1 1.2.1 2.4.1 3.7l-.4 12.3c0 .1.1.5.2 1.3l3-.1c2.8 0 4.1.8 4.1 2.3 0 .8-.2 1.6-.7 2.2-.5.6-1.2 1-2.1 1s-1.7-.3-2.3-.8h-2.2c.2 2.2.2 4.2.2 6.2l-.2 15.2c0 3.2 1 4.8 3 4.8zm45.5-10.6l-.5 1.7c0 .7.2 2.4.8 5.1.5 2.7.8 4.5.8 5.3v.1c0 1.3-.4 2.1-1.3 2.4-1.2 0-2.1-.2-2.8-.6s-1-1.4-1-2.9c0-1.6-.4-4.8-1.3-9.7l-2.6-.3h-2.8c-.6-.3-1.8-.4-3.4-.4 0 .1 0 .4-.1 1.1-.1.7-.1 1.2-.2 1.6 0 .4-.1 1-.2 1.9-.1.8-.2 1.5-.3 2.1-.1.6-.2 1.2-.4 2s-.4 1.4-.6 1.9c-.2.5-.4 1-.7 1.5-.5 1-1.1 1.5-1.8 1.5s-1.4-.2-1.9-.6c-.6-.4-.9-1-.9-1.6 1.5-5.8 2.8-11.8 3.9-18.1 1.1-6.3 1.7-10.1 1.9-11.2.2-1.2.7-3.5 1.5-6.8.8-3.4 1.2-5.6 1.4-6.8.2-1.1.3-2.6.4-4.4.2-3.9.8-6.5 1.5-7.6h2.9c1.9 0 2.9.6 2.9 1.8 0 11 1.1 21.9 3.2 32.7.1.6.3 1.5.6 2.7.6 2.2 1 4.2 1 5.6zm-5.9-1.8c-.2-.8-.2-2.2-.2-4 0-1.9-.1-4.1-.4-6.8-.2-2.7-.6-5.7-1-9.2-.4-3.5-.8-6-.9-7.6-.3 1.6-1 4.3-2 8.1-2 7.9-3 13.9-3 18.2 1 .6 3.5 1 7.5 1.3zm18.5-9.6c-.4 1.6-.6 3-.6 4.4 0 1.3.2 4.2.5 8.6.3 4.4.5 7.2.5 8.5 0 1.3-.2 2.3-.7 2.9-.5.7-1 1-1.6 1-.8 0-1.4-.6-1.6-1.7.1-2.1.1-4.7.1-7.8 0-3.1-.2-9.8-.7-20.2-.5-10.4-.7-18.2-.7-23.3 0-2.7.9-4 2.8-4 3 0 5.5.8 7.5 2.3 2 1.6 3 3.8 3 6.7 0 3.9-.3 6.9-.9 9.1-.6 2.2-1.8 4.9-3.5 8.1.3 1.4.8 4.1 1.6 8.2 1.6 8.8 3.5 15.2 5.5 19.1.6 1.1.9 2 .9 2.6s-.2 1.2-.5 1.6c-.3.4-.8.6-1.4.6-1.9 0-3.6-3.1-5.1-9.3-.7-2.7-1.3-5.4-1.8-8.2-1.5-7.5-2.5-11.8-2.9-12.7.2.7 0 1.9-.4 3.5zm-.1-28.5l-.3 1.2c0 2.3.1 5.7.2 10.1.1 4.4.2 7.6.2 9.6 1.3-.7 2.4-2.5 3.2-5.4.8-2.9 1.2-5.2 1.2-6.7s0-2.7-.1-3.4c-.1-.7-.3-1.5-.5-2.4-.6-2-1.9-2.9-3.9-3zm27 50.5l3.4-.2c2.2 0 3.3.7 3.3 2.1 0 .9-.4 1.5-1.1 1.9-.8.4-1.6.6-2.5.6h-8c-.7 0-1.3-.3-1.9-.8s-.8-1.1-.8-1.9c0-.8 0-1.8.2-2.9.2-1.2.2-2.1.2-2.8l-.4-10.9.6-24.9-.5-7.2c0-4 1.2-6 3.6-6 .7 0 1.3.2 1.9.6.2 0 .8.1 1.6.1.8.1 1.6.2 2.2.3.6.1 1.3.3 2.1.5 1.6.4 2.4 1.2 2.4 2.3 0 1.2-.8 2.1-2.5 2.7-2.6-.9-4.8-1.4-6.5-1.6.1 1.2.1 2.4.1 3.7l-.4 12.3c0 .1.1.5.2 1.3l3-.1c2.8 0 4.1.8 4.1 2.3 0 .8-.2 1.6-.7 2.2-.5.6-1.2 1-2.1 1s-1.7-.3-2.3-.8h-2.2c.2 2.2.2 4.2.2 6.2l-.3 15.2c0 3.2 1 4.8 3.1 4.8zm30.4-30.4l.5 22.1v9.7c0 .8-.2 1.4-.6 1.9-.4.5-.9.8-1.6.8-1.9 0-2.8-1.7-2.8-5.2l-.2-30.1.5-15.9c0-3.8 1-5.8 3.1-5.8 1.3 0 2.2 1 2.7 2.9.8 3.7 2.1 8.9 4.1 15.8 1.9 6.9 3.3 12.1 4 15.7.5 1.8 1.2 4.3 2 7.8.8 3.4 1.5 6 2 7.7.2-12.3.3-27.3.3-44.8l-.1-2.3c0-.8.1-1.4.4-1.9.3-.5.8-.7 1.5-.7s1.3.2 1.7.5c.9.7 1.3 1.6 1.3 2.8 0 7.8-.2 17.8-.7 30.1-.4 12.3-1.1 19.9-2 23l-.7.2c-.4.1-.6.2-.8.2-1.6.4-2.6.3-3-.2-.4-.5-.7-1.2-.9-2l-.6-2.4c-.2-.8-1.1-4.6-2.6-11.4-4.1-17.9-6.6-28.3-7.5-31.3v12.8zm47 10.7c0 16.4-3.3 24.5-10 24.5-6.2 0-9.6-7.8-10.4-23.3-.1-1.5-.1-2.9-.1-4.4v-6.9c0-12 1.8-19.5 5.3-22.3.9-.7 1.8-1.1 2.9-1.1.8.3 1.8.5 3 .8 1.2.2 2 .5 2.6.7 1 .5 2.1 1.7 3.3 3.7 1.2 2 2.1 4.6 2.6 8 .6 3.3.9 6.6.9 10v10.3zm-15.9-20.1l.1 5v10.7c0 .9.1 2.2.1 3.7s.1 3.1.2 4.6c.1 1.5.3 3.1.4 4.8.2 1.7.4 3.2.7 4.7.3 1.4.6 2.7.9 3.9.8 2.5 1.7 3.8 3 3.8 1.6 0 2.9-1.5 3.8-4.6 1.3-4.6 1.9-10.2 1.9-16.9l.1-8.8c0-6.2-.3-10.3-.8-12.5-.5-2.1-1-3.8-1.5-4.8-.9-2.2-2.4-3.3-4.3-3.3h-.2c-2.9-.1-4.4 3.1-4.4 9.7zm55.9 29.2l-.5 1.7c0 .7.2 2.4.8 5.1.5 2.7.8 4.5.8 5.3v.1c0 1.3-.4 2.1-1.3 2.4-1.2 0-2.1-.2-2.8-.6s-1-1.4-1-2.9c0-1.6-.4-4.8-1.3-9.7l-2.6-.3h-2.8c-.6-.3-1.8-.4-3.4-.4 0 .1 0 .4-.1 1.1-.1.7-.1 1.2-.2 1.6 0 .4-.1 1-.2 1.9-.1.8-.2 1.5-.3 2.1-.1.6-.2 1.2-.4 2s-.4 1.4-.6 1.9c-.2.5-.4 1-.7 1.5-.5 1-1.1 1.5-1.8 1.5s-1.4-.2-1.9-.6c-.6-.4-.9-1-.9-1.6 1.5-5.8 2.8-11.8 3.9-18.1 1.1-6.3 1.7-10.1 1.9-11.2.2-1.2.7-3.5 1.5-6.8.8-3.4 1.2-5.6 1.4-6.8.2-1.1.3-2.6.4-4.4.2-3.9.8-6.5 1.5-7.6h2.9c1.9 0 2.9.6 2.9 1.8 0 11 1.1 21.9 3.2 32.7.1.6.3 1.5.6 2.7.7 2.2 1 4.2 1 5.6zm-5.8-1.8c-.2-.8-.2-2.2-.2-4 0-1.9-.1-4.1-.4-6.8-.2-2.7-.6-5.7-1-9.2-.4-3.5-.8-6-.9-7.6-.3 1.6-1 4.3-2 8.1-2 7.9-3 13.9-3 18.2.9.6 3.4 1 7.5 1.3zm18.9-18l.5 22.1v9.7c0 .8-.2 1.4-.6 1.9-.4.5-.9.8-1.6.8-1.9 0-2.8-1.7-2.8-5.2l-.2-30.1.5-15.9c0-3.8 1-5.8 3.1-5.8 1.3 0 2.2 1 2.7 2.9.8 3.7 2.1 8.9 4.1 15.8 1.9 6.9 3.3 12.1 4 15.7.5 1.8 1.2 4.3 2 7.8.8 3.4 1.5 6 2 7.7.2-12.3.3-27.3.3-44.8l-.1-2.3c0-.8.1-1.4.4-1.9.3-.5.8-.7 1.5-.7s1.3.2 1.7.5c.9.7 1.3 1.6 1.3 2.8 0 7.8-.2 17.8-.7 30.1-.4 12.3-1.1 19.9-2 23l-.7.2c-.4.1-.6.2-.8.2-1.6.4-2.6.3-3-.2-.4-.5-.7-1.2-.9-2l-.6-2.4c-.2-.8-1.1-4.6-2.6-11.4-4.1-17.9-6.6-28.3-7.5-31.3v12.8zm26.4 30.1l4.5.6c1.1 0 2-.5 2.8-1.4.8-.9 1.4-2.1 1.8-3.5.8-2.7 1.1-5.1 1.1-7.2 0-2.1-.3-4.2-1-6.2-.7-2.1-1.5-4-2.5-5.7l-3-5.4c-2.4-4.3-3.6-8.6-3.6-12.8 0-2.6.4-4.8 1.3-6.8 1.6-3.7 3.8-5.5 6.4-5.5 1 0 2 .3 2.9 1 .9.6 1.4 1.3 1.4 2.1 0 1.3-.7 2-2.1 2-.6 0-1.2-.2-1.8-.5-1.8.1-3 2.1-3.7 6-.1.9-.2 1.9-.2 3 0 1.2.2 2.6.8 4.3.5 1.7 1.1 3.2 1.9 4.5.8 1.3 1.6 2.8 2.5 4.4.9 1.6 1.7 3.1 2.5 4.6 1.8 3.5 2.6 7.4 2.6 11.9 0 3.6-.7 6.8-2.1 9.9-.8 1.6-1.8 2.8-3.2 3.8-1.4 1-3 1.5-4.8 1.5v.2c-1.1-.1-2-.5-2.9-1.1-.9-.6-1.3-1.3-1.5-2.2v-1.5zm48.3-46.2c-.4 2.8-.7 4.8-.7 6.1v6.3c0 11.6-.7 20.9-2.2 27.9-.3 1.3-.4 2.5-.4 3.7 0 5.8-1 8.7-3.1 8.7-1 0-1.7-.7-2-2.2-.1-.5-.2-1.4-.2-2.8 0-1.3-.3-3.9-1-7.9-.3-1.7-.5-3.4-.7-5.2-.2-1.8-.5-5.5-.9-11.1s-.8-10-1.3-13c-.2 1.9-.2 4.1-.2 6.8 0 2.6-.5 7.4-1.6 14.3-.5 3.3-.8 5.4-.9 6.3-.1.8-.2 2.1-.4 3.9-.1 1.7-.5 3.7-1 6-.6 2.6-1.4 3.9-2.7 3.9-1.7 0-2.9-2.4-3.5-7.3-.3-2.2-.5-4.3-.6-6.3-.2-2.1-.3-4.1-.3-6.1-.1-2-.2-3.5-.2-4.2-.1-.8-.4-2.7-.9-5.9s-.8-5.4-.9-6.7c-.1-1.3-.2-3-.3-5.1-.1-2.1-.2-4.3-.4-6.8s-.8-4.9-1.8-7.2c.5-1 1.3-1.5 2.5-1.5 1.8 0 2.8 2.1 2.8 6.2s.6 10.4 1.8 18.9c1.2 8.5 1.9 14.6 2 18.5.1-.6.3-1.8.6-3.9.3-2 .5-3.4.6-4.2.1-.8.3-2 .5-3.8l.5-4.2c.1-1.1.2-2.3.3-3.8.1-1.4.1-2.9.1-4.5s.2-4 .5-7.5.5-5.7.6-6.8h2.3c.6 0 1.2.2 1.6.5.4.4.7.9.7 1.5v.7c1.4 5.4 2.6 13.3 3.4 23.8.4 4.8.8 8.5 1.1 11 .9-7.9 1.4-17.4 1.4-28.2 0-1.4.2-3.6.6-6.4.4-2.8.6-5 .6-6.4-.2-.5-.3-1-.3-1.5 0-1.4.8-2.1 2.4-2.1 1.6 0 2.4.7 2.4 2-.1 1-.3 2.9-.8 5.6zm16.5 46.5l3.4-.2c2.2 0 3.3.7 3.3 2.1 0 .9-.4 1.5-1.1 1.9-.8.4-1.6.6-2.5.6h-8c-.7 0-1.3-.3-1.9-.8s-.8-1.1-.8-1.9c0-.8 0-1.8.2-2.9.2-1.2.2-2.1.2-2.8l-.4-10.9.6-24.9-.5-7.2c0-4 1.2-6 3.6-6 .7 0 1.3.2 1.9.6.2 0 .8.1 1.6.1.8.1 1.6.2 2.2.3.6.1 1.3.3 2.1.5 1.6.4 2.4 1.2 2.4 2.3 0 1.2-.8 2.1-2.5 2.7-2.6-.9-4.8-1.4-6.5-1.6.1 1.2.1 2.4.1 3.7l-.4 12.3c0 .1.1.5.2 1.3l3-.1c2.8 0 4.1.8 4.1 2.3 0 .8-.2 1.6-.7 2.2-.5.6-1.2 1-2.1 1s-1.7-.3-2.3-.8h-2.2c.2 2.2.2 4.2.2 6.2l-.3 15.2c0 3.2 1 4.8 3.1 4.8zm17.8-22c-.4 1.6-.6 3-.6 4.4 0 1.3.2 4.2.5 8.6.3 4.4.5 7.2.5 8.5 0 1.3-.2 2.3-.7 2.9-.5.7-1 1-1.6 1-.8 0-1.4-.6-1.6-1.7.1-2.1.1-4.7.1-7.8 0-3.1-.2-9.8-.7-20.2-.5-10.4-.7-18.2-.7-23.3 0-2.7.9-4 2.8-4 3 0 5.5.8 7.5 2.3 2 1.6 3 3.8 3 6.7 0 3.9-.3 6.9-.9 9.1-.6 2.2-1.8 4.9-3.5 8.1.3 1.4.8 4.1 1.6 8.2 1.6 8.8 3.5 15.2 5.5 19.1.6 1.1.9 2 .9 2.6s-.2 1.2-.5 1.6c-.3.4-.8.6-1.4.6-1.9 0-3.6-3.1-5.1-9.3-.7-2.7-1.3-5.4-1.8-8.2-1.5-7.5-2.5-11.8-2.9-12.7.2.7 0 1.9-.4 3.5zm-.1-28.5l-.3 1.2c0 2.3.1 5.7.2 10.1.1 4.4.2 7.6.2 9.6 1.3-.7 2.4-2.5 3.2-5.4.8-2.9 1.2-5.2 1.2-6.7s0-2.7-.1-3.4c-.1-.7-.3-1.5-.5-2.4-.6-2-1.9-2.9-3.9-3zm18.1 50.2l4.5.6c1.1 0 2-.5 2.8-1.4.8-.9 1.4-2.1 1.8-3.5.8-2.7 1.1-5.1 1.1-7.2 0-2.1-.3-4.2-1-6.2-.7-2.1-1.5-4-2.5-5.7l-3-5.4c-2.4-4.3-3.6-8.6-3.6-12.8 0-2.6.4-4.8 1.3-6.8 1.6-3.7 3.8-5.5 6.4-5.5 1 0 2 .3 2.9 1 .9.6 1.4 1.3 1.4 2.1 0 1.3-.7 2-2.1 2-.6 0-1.2-.2-1.8-.5-1.8.1-3 2.1-3.7 6-.1.9-.2 1.9-.2 3 0 1.2.2 2.6.8 4.3.5 1.7 1.1 3.2 1.9 4.5.8 1.3 1.6 2.8 2.5 4.4.9 1.6 1.7 3.1 2.5 4.6 1.8 3.5 2.6 7.4 2.6 11.9 0 3.6-.7 6.8-2.1 9.9-.8 1.6-1.8 2.8-3.2 3.8-1.4 1-3 1.5-4.8 1.5v.2c-1.1-.1-2-.5-2.9-1.1-.9-.6-1.3-1.3-1.5-2.2v-1.5zm38.9-47.8l-.3 21.3c1 .3 2.5.4 4.5.4h3.3v-1.8c0-2.6-.2-6.5-.6-11.8-.4-5.2-.6-9.2-.6-11.8 0-.6.2-1.2.7-1.6.5-.4.9-.6 1.3-.6s.7 0 1-.1c.3 0 .5-.1.7 0 .2 0 .4.1.6.2.4.2.6.8.6 1.9 0 6 .3 14.9.8 26.8s.8 20.9.8 26.8c0 .5-.2.9-.6 1.2-.4.3-1 .4-1.6.4s-1.3-.2-1.9-.5c-.6-.3-.9-.8-.9-1.4-.3-5.7-.5-12.6-.5-20.9v-3.7c-.4.1-1.1.2-1.9.2l-5.3-.8-.2 9.4v.4l.7 14c0 .8-.2 1.6-.6 2.2-.4.6-1 .9-1.8.9-1.1 0-1.9-1-2.4-3.1-.4-2.1-.6-4.9-.6-8.5l.2-13v-4.9l.2-5-.6-19.3c0-.7.2-1.3.7-1.8.5-.5 1-.8 1.7-.8 1.7.2 2.6 1.9 2.6 5.3zm29.1 48.1l3.4-.2c2.2 0 3.3.7 3.3 2.1 0 .9-.4 1.5-1.1 1.9-.8.4-1.6.6-2.5.6h-8c-.7 0-1.3-.3-1.9-.8-.5-.5-.8-1.1-.8-1.9 0-.8 0-1.8.2-2.9s.2-2.1.2-2.8l-.4-10.9.6-24.9-.5-7.2c0-4 1.2-6 3.6-6 .7 0 1.3.2 1.9.6.2 0 .8.1 1.6.1.8.1 1.6.2 2.2.3.6.1 1.3.3 2.1.5 1.6.4 2.4 1.2 2.4 2.3 0 1.2-.8 2.1-2.5 2.7-2.6-.9-4.8-1.4-6.5-1.6.1 1.2.1 2.4.1 3.7l-.5 12c0 .1.1.5.2 1.3l3-.1c2.8 0 4.1.8 4.1 2.3 0 .8-.2 1.6-.7 2.2-.5.6-1.2 1-2.1 1-.9 0-1.7-.3-2.3-.8h-2.2c.2 2.2.2 4.2.2 6.2l-.2 15.5c0 3.2 1 4.8 3.1 4.8zm17.9-22c-.4 1.6-.6 3-.6 4.4 0 1.3.2 4.2.5 8.6.3 4.4.5 7.2.5 8.5 0 1.3-.2 2.3-.7 2.9-.5.7-1 1-1.6 1-.8 0-1.4-.6-1.6-1.7.1-2.1.1-4.7.1-7.8 0-3.1-.2-9.8-.7-20.2-.5-10.4-.7-18.2-.7-23.3 0-2.7.9-4 2.8-4 3 0 5.5.8 7.5 2.3s3 3.8 3 6.7c0 3.9-.3 6.9-.9 9.1-.6 2.2-1.8 4.9-3.5 8.1.3 1.4.8 4.1 1.6 8.2 1.6 8.8 3.5 15.2 5.5 19.1.6 1.1.9 2 .9 2.6s-.2 1.2-.5 1.6-.8.6-1.4.6c-1.9 0-3.6-3.1-5.1-9.3-.7-2.7-1.3-5.4-1.8-8.2-1.5-7.5-2.5-11.8-2.9-12.7.1.7 0 1.9-.4 3.5zm-.2-28.5l-.3 1.2c0 2.3.1 5.7.2 10.1.1 4.4.2 7.6.2 9.6 1.3-.7 2.4-2.5 3.2-5.4.8-2.9 1.2-5.2 1.2-6.7s0-2.7-.1-3.4c-.1-.7-.3-1.5-.5-2.4-.6-2-1.8-2.9-3.9-3zm27 50.5l3.4-.2c2.2 0 3.3.7 3.3 2.1 0 .9-.4 1.5-1.1 1.9-.8.4-1.6.6-2.5.6h-8c-.7 0-1.3-.3-1.9-.8-.5-.5-.8-1.1-.8-1.9 0-.8 0-1.8.2-2.9s.2-2.1.2-2.8l-.4-10.9.6-24.9-.5-7.2c0-4 1.2-6 3.6-6 .7 0 1.3.2 1.9.6.2 0 .8.1 1.6.1.8.1 1.6.2 2.2.3.6.1 1.3.3 2.1.5 1.6.4 2.4 1.2 2.4 2.3 0 1.2-.8 2.1-2.5 2.7-2.6-.9-4.8-1.4-6.5-1.6.1 1.2.1 2.4.1 3.7l-.4 12.3c0 .1.1.5.2 1.3l3-.1c2.8 0 4.1.8 4.1 2.3 0 .8-.2 1.6-.7 2.2-.5.6-1.2 1-2.1 1-.9 0-1.7-.3-2.3-.8h-2.2c.2 2.2.2 4.2.2 6.2l-.2 15.2c0 3.2 1 4.8 3 4.8zm16.9 4.6c-.9 0-1.6-.3-2.2-.9s-.9-1.3-.9-2.2c0-.8.3-1.6 1-2.2.6-.7 1.4-1 2.2-1 .8 0 1.6.3 2.2 1 .6.7.9 1.4.9 2.3 0 .9-.3 1.6-1 2.2-.5.5-1.3.8-2.2.8z"/></svg>