<svg xmlns="http://www.w3.org/2000/svg" viewBox="0 0 261.5 189.6" enable-background="new 0 0 261.5 189.6"><style type="text/css">.st0{fill:#027F80;} .st1{fill:#5AC6D1;} .st2{fill:#064040;} .st3{fill:#FFFFFF;}</style><g id="Hand"><path class="st0" d="M92.3 114.6l-9 5.5-6.2-2.3-11-19.2-8.6-19.6-7.7-15.2-5-12.7-5.4-4.8-5.9-11.2-4.8-7.1-9.2-5.8 2.7 9.3-1.2 6-9.3 6 8.9-3.7 4.9-2.1 7.9 4.1 3.7 6.5-2.2 10 3.8 8.2-2.4 8.3 3.2 3.5 1.4 9.3 3.1 11.2 2.3 4.7v11l-3.4 8.7-1.6 1.8 3.1-1.3 2.9-6.2 13-1h10l4.6-1.6 2.2 3.4 6.2 2.1 9-5.5v-.3zm-39.8-14.4l-1.4-10.6-6.3-7.1 1.5-10.1.7-6.1 8 14.8 5.3 13.2 5.3 4.6-13.1 1.3z"/><path class="st1" d="M58.3 35.2l-.1-.1zm33.7 43.7l-.6.8.6-.8zm-48 19.9l-3.2-11.1-1.4-9.3-3.2-3.5 2.4-8.3-3.8-8.2 2.2-10-3.7-6.5-7.9-4.1-4.9 2.1-8.9 3.7-1.3 8.1 1.1 10 2.4 12.3 7 11.3 11.5 27.7 9 12 1.6-1.8 3.4-8.7v-11l-2.3-4.7zm-12.7-17.3l-3.8 6-6.2-4.9v-2.5l6 5.4 4-7.8v3.8z"/><path class="st0" d="M72.7 47l-8.8-9.9-5.6-1.9-.1-.1-7.1 1.6-.4.1-2-1.5.5-.2 9.8-3 7.1 3 5.6 10.2zm182.3 16l-4 .8-3.7 4.8-3.6 8-4-6.8-9 4.7-5 2-4.4-19.5-4.1 14.6-6-3.7-3.2.8-2.2 5.6-5.3 5.3-6.4-2.4-5.5 8.6-4.4-9-3.1 2.8-1.6 8.4-2.2 7.3-3.1-1.6-5.9-6.4-.1 3.9-6.2-4.6-2.4 2.9-3.9-4.8-.6-3.2-4.8-4.8-5.6-13.6-3.4-3.6-6.1-10.2-7-5 .6 9.5-3.6 7.5 3.6-2.3-.5 6.1-7.3 4.7 8 1.3-2 5.7 6.5.9-3.5 4.8 6.3 2.6-2.6 3.9 6 4-5 5 8.1 2.5-2.5 4 5.7 6.3-1 6.3-8 5.5-3-9-5.5-6.3-.8 6.5-9.4 2.2-8 .3-6.6-2.5-5.7-13.7-10.4-1.1 2-4.5-6.3-17.7-4.7-2 1.2-7.5-6.1-15 2.1 16.7-2.5 4.6-2.9 3.9 10.4 1.2 4.4 10 1.1 9.1-5 6.7h11l-1.3 2.7 1.3 7.4-6-3.8-10.3-8.3 5.3-8-4-12.5-8.6-3.9 4.8-8-2.2-6.3-.1-9.2 1.4-7.1h.1l10 14.4 7.6 13.6 1 3 .7.4h.1l-.6.7v.1l6.5 17.8h5.3l9 4 4 1.5 3.7.4 5.7-4.5 3-4.2-5.2-5-7.7-15.2-1.7-2.7-4.9-9-5.6-10.6-3.9-7.1 4.6-9.3 11.2-1.8-10.2 4.1-3.6 7.7 5.9 11.4 10.4 17.3 7 15 8 3.6-3 2.5 2.9 6.9 5.5 14.6 4.2-3.3-10.6-17 4.5-3.1-2.3-2.4-4.8-1.7 3.4-3.5-5.8-2.6 3-3.9-6.2-.6 3-4.5-8-2.2-1.7-3.2 6.7-2.6-6-4.4 4.1-1.8 3.4-7.8.2-12.3 10.2 7.6 4.3 8 7 8.3 4.3 12 4 4.4 2.4 4.6 2.6 2 1.4-3 5.3 5.4-.3-5.4 10.3 9.4 1.3-7.4 1.4-7 5-5 4.3 8.7 3.7-7.7 2.5.3 4.6.1 2.9-8.7 8.3-1.1 4.6 1.6 6.5-12.7 4.2 18.9 5.3-1.8 15.7-13.6v-16.6z"/><path class="st1" d="M244.6 30.5l-6.1-4.5-4.5-.3-15.1 12.8h-7.5l-16.5 8h-8.5l-5-5.6h-3.8l-1.3 1.4-5.8 4.6.5 5.4-2.4-4 3.8-6.8.2-1.5-14.9-9.4-24-3.1h-21.3l-11.4-5.3-8.3-4.9-13-5.6-14-3.5-11.9-.9-14.2-1.6-15.3 2.1v7.7l8.6 11 12.2 6.5 3.5 2.4 10.4-3.3 7.1 3 5.7 10.2.9 1.7-8.8-9.8-5.7-2-7.5 1.7-4.2 4.8-1.7 9.5 5 12.7 7.7 15.1 8.7 19.7 11 19.2 6.2 2.3 9-5.5-6-3.8-10.4-8.4 5.3-8.1-4-12.5-8.7-3.8 4.8-8-2.2-6.3-.2-9.2 1.5-7.3.5.3 5.2 2.1 10.3 5 4.7.9 1.3 2.3-.3 5.6.7 7.3-2.7 7.7-.3.4-.6.8 6.7 17.8h5.3l9 4.1 4 1.5 3.7.4 5.7-4.5 3-4.2-5.2-5-7.6-15.2-1.8-2.6-4.9-9-5.6-10.6-3.9-7.1 4.6-9.2 11.2-1.9-10.2 4.2-3.7 7.7 5.9 11.4 10.5 17 7 15 8 3.6-3 2.5 3 6.9 5.4 14.6 4.2-3.3-10.6-17 4.5-3.1-2.3-2.4-4.8-1.7 3.5-3.5-5.8-2.7 3-3.8-6.2-.7 3-4.5-8-2.2-1.7-3.2 6.7-2.7-6-4.3 4.1-1.8 3.4-7.8.1-12.2 10.2 7.6 4.3 8 7 8.3 4.3 12 4 4.3 2.3 4.7 2.7 2 1.3-3 5.3 5.3-.3-5.3 10.3 9.3 1.3-7.3 1.3-7 5-5 4.3 8.7 3.7-7.7 2.5.2 4.6.2 2.9-8.7 8.2-1.1 4.6 1.6 6.5-12.8 4.2 18.9 5.2-1.8 15.8-13.6v-16.5l-2.4-11zm-183.5 34.1l1.5-8.6-.4-2.3-1.8-10.2h2l1.7 8.6.8 4.3-3.8 8.2zm19.9-38.8l-2.9 7.2-3.2 4.8 2.5-6 2.4-6.9.2-11.6 2.1 1.4-1.1 11.1zm17.7 17l-.7 3.1 1.1 4.7-3.6 3.9-1.4-1.5 3.6-3.9-2.6-3.9 3.2-4.4 1.4-2-1 4zm-33.1 56.3l-13.1 1.1-1.4-10.6-6.3-7.1 2.2-16.1 8 14.8 5.3 13.3zm-46.1-77l-5.7-3.4-5.7-.9-2.7 3.9.4 11 5.8 10.9 9.3-6 1.2-6.1-2.6-9.4zm-7.7 18.1l-1-1.7 1.4-.1 2.9-1.1-.3-3.7-.8-5.2-2-4.5-.8-1.9 1.2 1.8 2.6 3.8 1 6.1.6 4.4-4.8 2.1z"/><path class="st2" d="M255 63l-1.2 18-8.6 7.5-16.2 8.1-12.5 2.2-56.3 28.7h-7.9l-17.8 6-13.8-2.5-9.7 4-23.2-4.9-46.5-5.1 3.1-1.3 2.9-6.2 13-1h10l4.6-1.6 2.3 3.4 6.1 2.1 9-5.5v-.3l-1.3-7.4 1.3-2.7h-11l5-6.7-1.1-9.1-4.4-10-10.4-1.2 2.9-3.9 2.5-4.6-2.1-16.7 6.1 15-1.2 7.5 4.7 2 6.3 17.7-2 4.5 10.4 1.1 5.7 13.7 6.6 2.5 8-.3 9.4-2.2.8-6.5 5.5 6.3 3 9 8-5.5 1-6.3-5.7-6.3 2.5-4-8.1-2.5 5-5-6-4 2.6-3.9-6.3-2.6 3.5-4.8-6.5-.9 2-5.7-8-1.3 7.3-4.7.5-6.1-3.6 2.3 3.6-7.5-.6-9.5 7 5 6.1 10.2 3.4 3.6 5.6 13.6 4.8 4.8.6 3.2 3.9 4.8 2.4-2.9 6.2 4.6.1-3.9 5.9 6.4 3.1 1.6 2.2-7.3 1.6-8.4 3.1-2.8 4.4 9 5.5-8.6 6.4 2.4 5.3-5.3 2.2-5.6 3.2-.8 6 3.7 4.1-14.6 4.4 19.5 14-6.7 4 6.8 3.6-8 3.7-4.8zm-162.7 51.6z"/><path class="st0" d="M12.5 23.9h-.4l-.9-1.9zm4.1 14.2l-4.8 2.1-1-1.7h1.4l3-1.2-.4-3.7-.7-5.2-2-4.5h.4l2.5 3.7 1 6.2zm11 22.4l-3.1 5.5-5.4.6-3.3-1.3 3.4-.2 4-.3 3.1-4.5-2-9.8-.3-7 2.7 9.3zm3.7 17.1v3.9l-3.8 6-6.2-5v-2.4l6 5.4zm50.8-62.9l-1.1 11.1-2.9 7.2-3.3 4.7 2.5-6 2.4-6.9.3-11.5zm-21 49.9l1.5-8.6-.4-2.3-1.9-10.2h2l1.7 8.6.8 4.2zm36.9-18.7l1.1 4.7-3.6 3.9-1.4-1.5 3.6-3.9-2.6-3.9 3.2-4.4 1.4-2-1 4zm78.2-3.7l-5.7 4.7.5 5.4-2.4-4.1 3.7-6.7.3-1.6 1.4.9 3.6.1z"/><path d="M41.3 125l6 .6v4.5l-1 14 1 22.7-4.3-16 .7-8.8-1-7.2zm26.4-23.8l-8.5 9.4 5.6 16.1-6.5 16.8v41l4.3-10.3 5.6-12-4.7-18.4 3.6-4.1 5.7-13.1-6-9.5 6.5-6zm61-6.5l-5.2-5-7.7-15.2-1.7-2.6-4.2-7.8-7.7 4.7-7.2 2-3.2 7.9-.3.9 6.5 18.9h5.3l11.3 4.1 1.3.4-3.7 8.5-3.4 17.5 3.7 13.2-4.5 6.3 1.8 3.7 2 12.5 4.5-12.7 6-7.5v-14l-2.5-18.3 7.2-9.2 2.6-6.5zm13.1-36.8l5.2 6.2 4.3 12 4 4.4 11.5.5 14.7-11.1-5.9-12.9-15.5-4.7z"/></g><g id="Stars"><g id="star-4"><path class="st3" d="M156.5 62.7c0 .1-.1.2-.2.2h-4.6c-.1 0-.2-.1-.2-.2s.1-.2.2-.2h4.6c.2 0 .2.1.2.2zm-2.4 2.6c-.1 0-.2-.1-.2-.2v-4.6c0-.1.1-.2.2-.2s.2.1.2.2v4.6c-.1.2-.1.2-.2.2z"/><circle class="st3" cx="154.1" cy="62.7" r=".9"/></g><g id="star-3"><path class="st3" d="M116.5 90.7c0 .1-.1.2-.2.2h-4.6c-.1 0-.2-.1-.2-.2s.1-.2.2-.2h4.6c.2 0 .2.1.2.2zm-2.4 2.6c-.1 0-.2-.1-.2-.2v-4.6c0-.1.1-.2.2-.2s.2.1.2.2v4.6c-.1.2-.1.2-.2.2z"/><circle class="st3" cx="114.1" cy="90.7" r=".9"/><path class="st3" d="M100.5 78.7c0 .1-.1.2-.2.2h-4.6c-.1 0-.2-.1-.2-.2s.1-.2.2-.2h4.6c.2 0 .2.1.2.2zm-2.4 2.6c-.1 0-.2-.1-.2-.2v-4.6c0-.1.1-.2.2-.2s.2.1.2.2v4.6c-.1.2-.1.2-.2.2z"/><circle class="st3" cx="98.1" cy="78.7" r=".9"/><circle class="st3" cx="167.1" cy="58.7" r="1.3"/></g><g id="star-2"><circle class="st3" cx="161.6" cy="70.3" r=".9"/><circle class="st3" cx="110.1" cy="72.7" r="1.3"/></g><g id="star-1"><path class="st3" d="M168.5 76.7c0 .1-.1.2-.2.2h-4.6c-.1 0-.2-.1-.2-.2s.1-.2.2-.2h4.6c.2 0 .2.1.2.2zm-2.4 2.6c-.1 0-.2-.1-.2-.2v-4.6c0-.1.1-.2.2-.2s.2.1.2.2v4.6c-.1.2-.1.2-.2.2z"/><circle class="st3" cx="166.1" cy="76.7" r=".9"/><circle class="st3" cx="102.6" cy="91.2" r=".8"/></g></g></svg>