<svg xmlns="http://www.w3.org/2000/svg" viewBox="0 0 113 191" enable-background="new 0 0 113 191"><style type="text/css">.st0{fill:#F07CB0;} .st1{fill:none;} .st2{fill:#EE569E;} .st3{fill:#F6AFC6;} .st4{fill:#802956;} .st5{fill:#EF67A5;} .st6{fill:#CB1B6C;}</style><path class="st0" d="M32.3 87.9l2.8-33 17.9-33.6 4.6-.9 5.5 57.2-5.2 7.4z"/><path class="st1" d="M0 0h113v191h-113zm27.7 88.1l5.3-.7 24.2-3.2z"/><path class="st2" d="M65.4 165.1l-32.4-15.7-5.4-61.8 31.7-3.4z"/><path class="st3" d="M29.8 50.4l-2.1 37.7 5.3 61.3-5.5-2.7-5.5-63.9.2-18.9z"/><path class="st4" d="M22.2 63.9l-.2 18.9-1.6-21.2 28.8-44.7-19.4 33.5z"/><path class="st5" d="M53.4 21.9l-18.3 33-2 32.1-5.3.6 2-37.2 19.4-33.5 7.3-4.9 1.1 8.4z"/><path class="st6" d="M94.1 179l-29.9-14.5-7-80.3 5-6.6-5.7-65.6 25.9 66.1 2.4-6.4z"/><path class="st4" d="M82.4 78.1l-25.9-66.1 28.3 59.7z"/></svg>